<mxfile host="app.diagrams.net" modified="2020-03-31T04:27:02.354Z" agent="5.0 (Macintosh; Intel Mac OS X 10_12_6) AppleWebKit/537.36 (KHTML, like Gecko) Chrome/80.0.3987.149 Safari/537.36" etag="uv5vDjQQFdU7y5gunVnT" version="12.9.5" type="github">
  <diagram id="KmwrGCwzeyCqLZFn_2tw" name="逻辑网络与虚拟网络">
    <mxGraphModel dx="946" dy="516" grid="0" gridSize="10" guides="1" tooltips="1" connect="1" arrows="1" fold="1" page="1" pageScale="1" pageWidth="827" pageHeight="1169" math="0" shadow="0">
      <root>
        <mxCell id="0" />
        <mxCell id="1" parent="0" />
        <mxCell id="YLXUXDJp3LFLk9qvPLuZ-22" style="edgeStyle=none;rounded=0;orthogonalLoop=1;jettySize=auto;html=1;endArrow=none;endFill=0;" parent="1" source="3VEoIM8ZX6iH1CT_TiHG-1" edge="1">
          <mxGeometry relative="1" as="geometry">
            <mxPoint x="390" y="300" as="sourcePoint" />
            <mxPoint x="456.24" y="252" as="targetPoint" />
          </mxGeometry>
        </mxCell>
        <mxCell id="YLXUXDJp3LFLk9qvPLuZ-1" value="&lt;font style=&quot;font-size: 14px&quot; color=&quot;#000000&quot;&gt;蜂窝基站&lt;/font&gt;" style="fontColor=#0066CC;verticalAlign=top;verticalLabelPosition=bottom;labelPosition=center;align=center;html=1;outlineConnect=0;fillColor=#CCCCCC;strokeColor=#6881B3;gradientColor=none;gradientDirection=north;strokeWidth=2;shape=mxgraph.networks.radio_tower;" parent="1" vertex="1">
          <mxGeometry x="323" y="110" width="37" height="73" as="geometry" />
        </mxCell>
        <mxCell id="YLXUXDJp3LFLk9qvPLuZ-3" value="" style="verticalLabelPosition=bottom;aspect=fixed;html=1;verticalAlign=top;strokeColor=none;align=center;outlineConnect=0;shape=mxgraph.citrix.provisioning_server;" parent="1" vertex="1">
          <mxGeometry x="626" y="160" width="61.15" height="70" as="geometry" />
        </mxCell>
        <mxCell id="YLXUXDJp3LFLk9qvPLuZ-4" value="&lt;font style=&quot;font-size: 14px&quot;&gt;笔记本&lt;/font&gt;" style="verticalLabelPosition=bottom;aspect=fixed;html=1;verticalAlign=top;strokeColor=none;align=center;outlineConnect=0;shape=mxgraph.citrix.laptop_2;" parent="1" vertex="1">
          <mxGeometry x="150" y="314.91" width="55.77" height="41.59" as="geometry" />
        </mxCell>
        <mxCell id="YLXUXDJp3LFLk9qvPLuZ-5" value="&lt;font style=&quot;font-size: 14px&quot;&gt;智能手机&lt;/font&gt;" style="verticalLabelPosition=bottom;aspect=fixed;html=1;verticalAlign=top;strokeColor=none;align=center;outlineConnect=0;shape=mxgraph.citrix.pda;" parent="1" vertex="1">
          <mxGeometry x="170" y="94.7" width="22.77" height="46.3" as="geometry" />
        </mxCell>
        <mxCell id="YLXUXDJp3LFLk9qvPLuZ-6" value="" style="verticalLabelPosition=bottom;aspect=fixed;html=1;verticalAlign=top;strokeColor=none;align=center;outlineConnect=0;shape=mxgraph.citrix.tablet_2;" parent="1" vertex="1">
          <mxGeometry x="160" y="198" width="45.77" height="48" as="geometry" />
        </mxCell>
        <mxCell id="YLXUXDJp3LFLk9qvPLuZ-21" style="edgeStyle=none;rounded=0;orthogonalLoop=1;jettySize=auto;html=1;endArrow=none;endFill=0;" parent="1" target="YLXUXDJp3LFLk9qvPLuZ-1" edge="1">
          <mxGeometry relative="1" as="geometry">
            <mxPoint x="400" y="160" as="targetPoint" />
            <mxPoint x="450" y="200" as="sourcePoint" />
          </mxGeometry>
        </mxCell>
        <mxCell id="YLXUXDJp3LFLk9qvPLuZ-23" style="edgeStyle=none;rounded=0;orthogonalLoop=1;jettySize=auto;html=1;endArrow=none;endFill=0;" parent="1" target="YLXUXDJp3LFLk9qvPLuZ-8" edge="1">
          <mxGeometry relative="1" as="geometry">
            <mxPoint x="530" y="220" as="sourcePoint" />
          </mxGeometry>
        </mxCell>
        <mxCell id="YLXUXDJp3LFLk9qvPLuZ-8" value="&lt;font style=&quot;font-size: 14px&quot;&gt;固定终端&lt;/font&gt;" style="verticalLabelPosition=bottom;aspect=fixed;html=1;verticalAlign=top;strokeColor=none;align=center;outlineConnect=0;shape=mxgraph.citrix.provisioning_server;" parent="1" vertex="1">
          <mxGeometry x="600" y="190" width="57.66" height="66" as="geometry" />
        </mxCell>
        <mxCell id="YLXUXDJp3LFLk9qvPLuZ-24" value="" style="html=1;outlineConnect=0;fillColor=#CCCCCC;strokeColor=#6881B3;gradientColor=none;gradientDirection=north;strokeWidth=2;shape=mxgraph.networks.comm_link_edge;html=1;endArrow=none;endFill=0;" parent="1" edge="1">
          <mxGeometry width="100" height="100" relative="1" as="geometry">
            <mxPoint x="220" y="133" as="sourcePoint" />
            <mxPoint x="290" y="103" as="targetPoint" />
          </mxGeometry>
        </mxCell>
        <mxCell id="YLXUXDJp3LFLk9qvPLuZ-25" value="" style="html=1;outlineConnect=0;fillColor=#CCCCCC;strokeColor=#6881B3;gradientColor=none;gradientDirection=north;strokeWidth=2;shape=mxgraph.networks.comm_link_edge;html=1;endArrow=none;endFill=0;" parent="1" edge="1">
          <mxGeometry width="100" height="100" relative="1" as="geometry">
            <mxPoint x="220" y="210" as="sourcePoint" />
            <mxPoint x="290" y="180" as="targetPoint" />
          </mxGeometry>
        </mxCell>
        <mxCell id="YLXUXDJp3LFLk9qvPLuZ-26" value="" style="html=1;outlineConnect=0;fillColor=#CCCCCC;strokeColor=#6881B3;gradientColor=none;gradientDirection=north;strokeWidth=2;shape=mxgraph.networks.comm_link_edge;html=1;endArrow=none;endFill=0;" parent="1" edge="1">
          <mxGeometry width="100" height="100" relative="1" as="geometry">
            <mxPoint x="220" y="340" as="sourcePoint" />
            <mxPoint x="290" y="310" as="targetPoint" />
          </mxGeometry>
        </mxCell>
        <mxCell id="3VEoIM8ZX6iH1CT_TiHG-1" value="&lt;font style=&quot;font-size: 14px&quot;&gt;无线接入点&lt;/font&gt;" style="image;html=1;labelBackgroundColor=#ffffff;image=img/lib/clip_art/networking/Wireless_Router_N_128x128.png" parent="1" vertex="1">
          <mxGeometry x="320" y="280" width="70.5" height="61" as="geometry" />
        </mxCell>
        <mxCell id="3VEoIM8ZX6iH1CT_TiHG-15" style="rounded=0;orthogonalLoop=1;jettySize=auto;html=1;entryX=0.5;entryY=0;entryDx=0;entryDy=0;entryPerimeter=0;strokeWidth=1;endArrow=none;endFill=0;" parent="1" target="3VEoIM8ZX6iH1CT_TiHG-9" edge="1">
          <mxGeometry relative="1" as="geometry">
            <mxPoint x="510" y="270" as="sourcePoint" />
          </mxGeometry>
        </mxCell>
        <mxCell id="3VEoIM8ZX6iH1CT_TiHG-2" value="&lt;font style=&quot;font-size: 14px&quot;&gt;路由器&lt;/font&gt;" style="shape=mxgraph.cisco.routers.router;html=1;dashed=0;fillColor=#036897;strokeColor=#ffffff;strokeWidth=2;verticalLabelPosition=bottom;verticalAlign=top" parent="1" vertex="1">
          <mxGeometry x="460" y="200" width="63" height="38" as="geometry" />
        </mxCell>
        <mxCell id="3VEoIM8ZX6iH1CT_TiHG-3" value="" style="endArrow=none;dashed=1;html=1;strokeWidth=2;" parent="1" edge="1">
          <mxGeometry width="50" height="50" relative="1" as="geometry">
            <mxPoint x="50" y="400" as="sourcePoint" />
            <mxPoint x="764" y="400" as="targetPoint" />
          </mxGeometry>
        </mxCell>
        <mxCell id="3VEoIM8ZX6iH1CT_TiHG-4" value="&lt;font style=&quot;font-size: 16px&quot;&gt;逻辑网络&lt;/font&gt;" style="text;html=1;align=center;verticalAlign=middle;resizable=0;points=[];autosize=1;" parent="1" vertex="1">
          <mxGeometry x="47" y="213" width="80" height="20" as="geometry" />
        </mxCell>
        <mxCell id="3VEoIM8ZX6iH1CT_TiHG-5" value="&lt;font style=&quot;font-size: 16px&quot;&gt;虚拟网络&lt;/font&gt;" style="text;html=1;align=center;verticalAlign=middle;resizable=0;points=[];autosize=1;" parent="1" vertex="1">
          <mxGeometry x="50" y="446" width="80" height="20" as="geometry" />
        </mxCell>
        <mxCell id="3VEoIM8ZX6iH1CT_TiHG-9" value="" style="fontColor=#0066CC;verticalAlign=top;verticalLabelPosition=bottom;labelPosition=center;align=center;html=1;outlineConnect=0;fillColor=#CCCCCC;strokeColor=#6881B3;gradientColor=none;gradientDirection=north;strokeWidth=2;shape=mxgraph.networks.virtual_pc;" parent="1" vertex="1">
          <mxGeometry x="510" y="320" width="90" height="58.21" as="geometry" />
        </mxCell>
        <mxCell id="Uka52kCuvuWvv9zvL4SE-32" style="edgeStyle=orthogonalEdgeStyle;rounded=0;orthogonalLoop=1;jettySize=auto;html=1;exitX=0.5;exitY=1;exitDx=0;exitDy=0;entryX=0.5;entryY=0;entryDx=0;entryDy=0;endArrow=none;endFill=0;" edge="1" parent="1" source="3VEoIM8ZX6iH1CT_TiHG-16" target="Uka52kCuvuWvv9zvL4SE-31">
          <mxGeometry relative="1" as="geometry" />
        </mxCell>
        <mxCell id="3VEoIM8ZX6iH1CT_TiHG-16" value="" style="rounded=0;whiteSpace=wrap;html=1;" parent="1" vertex="1">
          <mxGeometry x="160" y="441" width="160" height="154" as="geometry" />
        </mxCell>
        <mxCell id="Uka52kCuvuWvv9zvL4SE-6" style="edgeStyle=orthogonalEdgeStyle;rounded=0;orthogonalLoop=1;jettySize=auto;html=1;exitX=0.5;exitY=1;exitDx=0;exitDy=0;endArrow=none;endFill=0;" edge="1" parent="1" source="3VEoIM8ZX6iH1CT_TiHG-17" target="Uka52kCuvuWvv9zvL4SE-5">
          <mxGeometry relative="1" as="geometry">
            <Array as="points">
              <mxPoint x="180" y="535" />
              <mxPoint x="240" y="535" />
            </Array>
          </mxGeometry>
        </mxCell>
        <mxCell id="3VEoIM8ZX6iH1CT_TiHG-17" value="VM" style="rounded=0;whiteSpace=wrap;html=1;" parent="1" vertex="1">
          <mxGeometry x="169.77" y="465" width="40" height="48" as="geometry" />
        </mxCell>
        <mxCell id="3VEoIM8ZX6iH1CT_TiHG-18" value="" style="shape=flexArrow;endArrow=classic;html=1;strokeWidth=1;fillColor=#FFFF00;strokeColor=#000000;" parent="1" edge="1">
          <mxGeometry width="50" height="50" relative="1" as="geometry">
            <mxPoint x="429.5" y="373" as="sourcePoint" />
            <mxPoint x="429.5" y="433" as="targetPoint" />
          </mxGeometry>
        </mxCell>
        <mxCell id="Uka52kCuvuWvv9zvL4SE-7" style="edgeStyle=orthogonalEdgeStyle;rounded=0;orthogonalLoop=1;jettySize=auto;html=1;exitX=0.5;exitY=1;exitDx=0;exitDy=0;endArrow=none;endFill=0;" edge="1" parent="1" source="Uka52kCuvuWvv9zvL4SE-3">
          <mxGeometry relative="1" as="geometry">
            <mxPoint x="240" y="545" as="targetPoint" />
          </mxGeometry>
        </mxCell>
        <mxCell id="Uka52kCuvuWvv9zvL4SE-3" value="VM" style="rounded=0;whiteSpace=wrap;html=1;" vertex="1" parent="1">
          <mxGeometry x="220" y="465" width="40" height="48" as="geometry" />
        </mxCell>
        <mxCell id="Uka52kCuvuWvv9zvL4SE-8" style="edgeStyle=orthogonalEdgeStyle;rounded=0;orthogonalLoop=1;jettySize=auto;html=1;exitX=0.5;exitY=1;exitDx=0;exitDy=0;endArrow=none;endFill=0;" edge="1" parent="1">
          <mxGeometry relative="1" as="geometry">
            <mxPoint x="240" y="555" as="targetPoint" />
            <mxPoint x="290" y="513" as="sourcePoint" />
            <Array as="points">
              <mxPoint x="290" y="535" />
              <mxPoint x="240" y="535" />
            </Array>
          </mxGeometry>
        </mxCell>
        <mxCell id="Uka52kCuvuWvv9zvL4SE-4" value="VM" style="rounded=0;whiteSpace=wrap;html=1;" vertex="1" parent="1">
          <mxGeometry x="270" y="465" width="40" height="48" as="geometry" />
        </mxCell>
        <mxCell id="Uka52kCuvuWvv9zvL4SE-5" value="OpenvSwitch" style="rounded=0;whiteSpace=wrap;html=1;" vertex="1" parent="1">
          <mxGeometry x="180" y="555" width="120" height="30" as="geometry" />
        </mxCell>
        <mxCell id="Uka52kCuvuWvv9zvL4SE-33" style="edgeStyle=orthogonalEdgeStyle;rounded=0;orthogonalLoop=1;jettySize=auto;html=1;exitX=0.5;exitY=1;exitDx=0;exitDy=0;endArrow=none;endFill=0;" edge="1" parent="1" source="Uka52kCuvuWvv9zvL4SE-9">
          <mxGeometry relative="1" as="geometry">
            <mxPoint x="430" y="615" as="targetPoint" />
          </mxGeometry>
        </mxCell>
        <mxCell id="Uka52kCuvuWvv9zvL4SE-9" value="" style="rounded=0;whiteSpace=wrap;html=1;" vertex="1" parent="1">
          <mxGeometry x="350" y="441" width="160" height="154" as="geometry" />
        </mxCell>
        <mxCell id="Uka52kCuvuWvv9zvL4SE-10" style="edgeStyle=orthogonalEdgeStyle;rounded=0;orthogonalLoop=1;jettySize=auto;html=1;exitX=0.5;exitY=1;exitDx=0;exitDy=0;endArrow=none;endFill=0;" edge="1" parent="1" source="Uka52kCuvuWvv9zvL4SE-11" target="Uka52kCuvuWvv9zvL4SE-16">
          <mxGeometry relative="1" as="geometry">
            <Array as="points">
              <mxPoint x="370" y="535" />
              <mxPoint x="430" y="535" />
            </Array>
          </mxGeometry>
        </mxCell>
        <mxCell id="Uka52kCuvuWvv9zvL4SE-11" value="VM" style="rounded=0;whiteSpace=wrap;html=1;" vertex="1" parent="1">
          <mxGeometry x="359.77" y="465" width="40" height="48" as="geometry" />
        </mxCell>
        <mxCell id="Uka52kCuvuWvv9zvL4SE-12" style="edgeStyle=orthogonalEdgeStyle;rounded=0;orthogonalLoop=1;jettySize=auto;html=1;exitX=0.5;exitY=1;exitDx=0;exitDy=0;endArrow=none;endFill=0;" edge="1" parent="1" source="Uka52kCuvuWvv9zvL4SE-13">
          <mxGeometry relative="1" as="geometry">
            <mxPoint x="430" y="545" as="targetPoint" />
          </mxGeometry>
        </mxCell>
        <mxCell id="Uka52kCuvuWvv9zvL4SE-13" value="VM" style="rounded=0;whiteSpace=wrap;html=1;" vertex="1" parent="1">
          <mxGeometry x="410" y="465" width="40" height="48" as="geometry" />
        </mxCell>
        <mxCell id="Uka52kCuvuWvv9zvL4SE-14" style="edgeStyle=orthogonalEdgeStyle;rounded=0;orthogonalLoop=1;jettySize=auto;html=1;exitX=0.5;exitY=1;exitDx=0;exitDy=0;endArrow=none;endFill=0;" edge="1" parent="1">
          <mxGeometry relative="1" as="geometry">
            <mxPoint x="430" y="555" as="targetPoint" />
            <mxPoint x="480" y="513" as="sourcePoint" />
            <Array as="points">
              <mxPoint x="480" y="535" />
              <mxPoint x="430" y="535" />
            </Array>
          </mxGeometry>
        </mxCell>
        <mxCell id="Uka52kCuvuWvv9zvL4SE-15" value="VM" style="rounded=0;whiteSpace=wrap;html=1;" vertex="1" parent="1">
          <mxGeometry x="460" y="465" width="40" height="48" as="geometry" />
        </mxCell>
        <mxCell id="Uka52kCuvuWvv9zvL4SE-16" value="OpenvSwitch" style="rounded=0;whiteSpace=wrap;html=1;" vertex="1" parent="1">
          <mxGeometry x="370" y="555" width="120" height="30" as="geometry" />
        </mxCell>
        <mxCell id="Uka52kCuvuWvv9zvL4SE-34" style="edgeStyle=orthogonalEdgeStyle;rounded=0;orthogonalLoop=1;jettySize=auto;html=1;exitX=0.5;exitY=1;exitDx=0;exitDy=0;entryX=0.5;entryY=0;entryDx=0;entryDy=0;endArrow=none;endFill=0;" edge="1" parent="1" source="Uka52kCuvuWvv9zvL4SE-17" target="Uka52kCuvuWvv9zvL4SE-31">
          <mxGeometry relative="1" as="geometry" />
        </mxCell>
        <mxCell id="Uka52kCuvuWvv9zvL4SE-17" value="" style="rounded=0;whiteSpace=wrap;html=1;" vertex="1" parent="1">
          <mxGeometry x="527.15" y="441" width="160" height="154" as="geometry" />
        </mxCell>
        <mxCell id="Uka52kCuvuWvv9zvL4SE-24" value="OpenvSwitch" style="rounded=0;whiteSpace=wrap;html=1;" vertex="1" parent="1">
          <mxGeometry x="547.15" y="555" width="120" height="30" as="geometry" />
        </mxCell>
        <mxCell id="Uka52kCuvuWvv9zvL4SE-26" style="rounded=0;orthogonalLoop=1;jettySize=auto;html=1;exitX=0.5;exitY=1;exitDx=0;exitDy=0;entryX=0.107;entryY=0;entryDx=0;entryDy=0;endArrow=none;endFill=0;entryPerimeter=0;" edge="1" parent="1" source="Uka52kCuvuWvv9zvL4SE-25" target="Uka52kCuvuWvv9zvL4SE-24">
          <mxGeometry relative="1" as="geometry" />
        </mxCell>
        <mxCell id="Uka52kCuvuWvv9zvL4SE-27" style="edgeStyle=none;rounded=0;orthogonalLoop=1;jettySize=auto;html=1;exitX=0.5;exitY=1;exitDx=0;exitDy=0;entryX=0.307;entryY=0.033;entryDx=0;entryDy=0;entryPerimeter=0;endArrow=none;endFill=0;" edge="1" parent="1" source="Uka52kCuvuWvv9zvL4SE-25" target="Uka52kCuvuWvv9zvL4SE-24">
          <mxGeometry relative="1" as="geometry" />
        </mxCell>
        <mxCell id="Uka52kCuvuWvv9zvL4SE-25" value="Router" style="ellipse;whiteSpace=wrap;html=1;" vertex="1" parent="1">
          <mxGeometry x="550" y="495" width="40" height="31.25" as="geometry" />
        </mxCell>
        <mxCell id="Uka52kCuvuWvv9zvL4SE-28" style="rounded=0;orthogonalLoop=1;jettySize=auto;html=1;exitX=0.5;exitY=1;exitDx=0;exitDy=0;entryX=0.107;entryY=0;entryDx=0;entryDy=0;endArrow=none;endFill=0;entryPerimeter=0;" edge="1" parent="1" source="Uka52kCuvuWvv9zvL4SE-30">
          <mxGeometry relative="1" as="geometry">
            <mxPoint x="618.82" y="555" as="targetPoint" />
          </mxGeometry>
        </mxCell>
        <mxCell id="Uka52kCuvuWvv9zvL4SE-29" style="edgeStyle=none;rounded=0;orthogonalLoop=1;jettySize=auto;html=1;exitX=0.5;exitY=1;exitDx=0;exitDy=0;entryX=0.307;entryY=0.033;entryDx=0;entryDy=0;entryPerimeter=0;endArrow=none;endFill=0;" edge="1" parent="1" source="Uka52kCuvuWvv9zvL4SE-30">
          <mxGeometry relative="1" as="geometry">
            <mxPoint x="642.82" y="555.99" as="targetPoint" />
          </mxGeometry>
        </mxCell>
        <mxCell id="Uka52kCuvuWvv9zvL4SE-30" value="Router" style="ellipse;whiteSpace=wrap;html=1;" vertex="1" parent="1">
          <mxGeometry x="608.83" y="495" width="41.17" height="31.25" as="geometry" />
        </mxCell>
        <mxCell id="Uka52kCuvuWvv9zvL4SE-31" value="Physical Switch" style="rounded=0;whiteSpace=wrap;html=1;" vertex="1" parent="1">
          <mxGeometry x="333.15" y="635" width="194" height="30" as="geometry" />
        </mxCell>
        <mxCell id="Uka52kCuvuWvv9zvL4SE-35" value="" style="shape=flexArrow;endArrow=classic;html=1;strokeWidth=1;fillColor=#FFFF00;strokeColor=#000000;" edge="1" parent="1">
          <mxGeometry width="50" height="50" relative="1" as="geometry">
            <mxPoint x="628.33" y="371" as="sourcePoint" />
            <mxPoint x="628.33" y="431" as="targetPoint" />
          </mxGeometry>
        </mxCell>
        <mxCell id="Uka52kCuvuWvv9zvL4SE-36" value="" style="shape=flexArrow;endArrow=classic;html=1;strokeWidth=1;fillColor=#FFFF00;strokeColor=#000000;" edge="1" parent="1">
          <mxGeometry width="50" height="50" relative="1" as="geometry">
            <mxPoint x="234" y="372" as="sourcePoint" />
            <mxPoint x="234" y="432" as="targetPoint" />
          </mxGeometry>
        </mxCell>
        <mxCell id="Uka52kCuvuWvv9zvL4SE-37" value="&lt;font style=&quot;font-size: 14px&quot;&gt;映射&lt;/font&gt;" style="text;html=1;align=center;verticalAlign=middle;resizable=0;points=[];autosize=1;" vertex="1" parent="1">
          <mxGeometry x="635" y="374" width="38" height="19" as="geometry" />
        </mxCell>
      </root>
    </mxGraphModel>
  </diagram>
</mxfile>
